<mxfile host="app.diagrams.net" modified="2024-05-29T23:01:31.493Z" agent="Mozilla/5.0 (Windows NT 10.0; Win64; x64) AppleWebKit/537.36 (KHTML, like Gecko) Chrome/125.0.0.0 Safari/537.36" etag="WGlhRVNJ_prU4S9__s1z" version="24.4.8" type="github">
  <diagram name="PÃ¡gina-1" id="hzqPrUaa6oifpeitqOxY">
    <mxGraphModel dx="1781" dy="661" grid="1" gridSize="10" guides="1" tooltips="1" connect="1" arrows="1" fold="1" page="1" pageScale="1" pageWidth="827" pageHeight="1169" math="0" shadow="0">
      <root>
        <mxCell id="0" />
        <mxCell id="1" parent="0" />
        <mxCell id="pZCj7Mt7oj5ytXcFUYIk-11" style="edgeStyle=orthogonalEdgeStyle;rounded=0;orthogonalLoop=1;jettySize=auto;html=1;entryX=0.5;entryY=0;entryDx=0;entryDy=0;" edge="1" parent="1" source="pZCj7Mt7oj5ytXcFUYIk-2" target="pZCj7Mt7oj5ytXcFUYIk-4">
          <mxGeometry relative="1" as="geometry" />
        </mxCell>
        <mxCell id="pZCj7Mt7oj5ytXcFUYIk-2" value="&lt;p style=&quot;margin:0px;margin-top:4px;text-align:center;&quot;&gt;&lt;b&gt;Iphone&lt;/b&gt;&lt;/p&gt;&lt;hr size=&quot;1&quot; style=&quot;border-style:solid;&quot;&gt;&lt;div style=&quot;height:2px;&quot;&gt;&lt;/div&gt;&lt;hr size=&quot;1&quot; style=&quot;border-style:solid;&quot;&gt;&lt;div style=&quot;height:2px;&quot;&gt;&lt;/div&gt;" style="verticalAlign=top;align=left;overflow=fill;html=1;whiteSpace=wrap;fillColor=#fff2cc;strokeColor=#050402;" vertex="1" parent="1">
          <mxGeometry x="295" y="150" width="190" height="60" as="geometry" />
        </mxCell>
        <mxCell id="pZCj7Mt7oj5ytXcFUYIk-3" value="&lt;p style=&quot;margin:0px;margin-top:4px;text-align:center;&quot;&gt;&lt;b&gt;ReprodutorMucical&lt;/b&gt;&lt;br&gt;&lt;/p&gt;&lt;hr size=&quot;1&quot; style=&quot;border-style:solid;&quot;&gt;&lt;div style=&quot;height:2px;&quot;&gt;&lt;/div&gt;&lt;hr size=&quot;1&quot; style=&quot;border-style:solid;&quot;&gt;&lt;div style=&quot;height:2px;&quot;&gt;&lt;/div&gt;" style="verticalAlign=top;align=left;overflow=fill;html=1;whiteSpace=wrap;fillColor=#fff2cc;strokeColor=#000000;" vertex="1" parent="1">
          <mxGeometry x="-10" y="320" width="240" height="140" as="geometry" />
        </mxCell>
        <mxCell id="pZCj7Mt7oj5ytXcFUYIk-4" value="&lt;p style=&quot;margin:0px;margin-top:4px;text-align:center;&quot;&gt;&lt;b&gt;AparelhoTelefonico&lt;/b&gt;&lt;/p&gt;&lt;hr size=&quot;1&quot; style=&quot;border-style:solid;&quot;&gt;&lt;div style=&quot;height:2px;&quot;&gt;&lt;/div&gt;&lt;hr size=&quot;1&quot; style=&quot;border-style:solid;&quot;&gt;&lt;div style=&quot;height:2px;&quot;&gt;&lt;/div&gt;" style="verticalAlign=top;align=left;overflow=fill;html=1;whiteSpace=wrap;container=0;fillColor=#fff2cc;strokeColor=#050402;" vertex="1" parent="1">
          <mxGeometry x="280" y="320" width="220" height="140" as="geometry" />
        </mxCell>
        <mxCell id="pZCj7Mt7oj5ytXcFUYIk-5" value="&lt;p style=&quot;margin:0px;margin-top:4px;text-align:center;&quot;&gt;&lt;b&gt;NavegadorInternet&lt;/b&gt;&lt;/p&gt;&lt;hr size=&quot;1&quot; style=&quot;border-style:solid;&quot;&gt;&lt;div style=&quot;height:2px;&quot;&gt;&lt;/div&gt;&lt;hr size=&quot;1&quot; style=&quot;border-style:solid;&quot;&gt;&lt;div style=&quot;height:2px;&quot;&gt;&lt;/div&gt;" style="verticalAlign=top;align=left;overflow=fill;html=1;whiteSpace=wrap;movable=1;resizable=1;rotatable=1;deletable=1;editable=1;locked=0;connectable=1;container=0;fillColor=#fff2cc;strokeColor=#050402;" vertex="1" parent="1">
          <mxGeometry x="570" y="320" width="210" height="140" as="geometry" />
        </mxCell>
        <mxCell id="pZCj7Mt7oj5ytXcFUYIk-6" value="+ tocar()&lt;div&gt;&amp;nbsp; &amp;nbsp;+ pausar()&lt;br&gt;&amp;nbsp; &amp;nbsp; &amp;nbsp; &amp;nbsp; &amp;nbsp; &amp;nbsp; &amp;nbsp; &amp;nbsp; &amp;nbsp; &amp;nbsp; &amp;nbsp; &amp;nbsp; &amp;nbsp; &amp;nbsp; &amp;nbsp; &amp;nbsp; &amp;nbsp; &amp;nbsp; &amp;nbsp; &amp;nbsp; &amp;nbsp;+ selecionarMusica(String musica)&lt;/div&gt;&lt;div&gt;&lt;br&gt;&lt;/div&gt;" style="text;html=1;align=center;verticalAlign=middle;resizable=0;points=[];autosize=1;" vertex="1" parent="1">
          <mxGeometry x="-140" y="380" width="340" height="70" as="geometry" />
        </mxCell>
        <mxCell id="pZCj7Mt7oj5ytXcFUYIk-7" value="&amp;nbsp; &amp;nbsp; &amp;nbsp; &amp;nbsp; &amp;nbsp; &amp;nbsp; &amp;nbsp; &amp;nbsp; &amp;nbsp;+ ligar(String numero)&lt;br&gt;&lt;span style=&quot;background-color: initial;&quot;&gt;+ atender()&lt;/span&gt;&lt;div&gt;&lt;div&gt;&amp;nbsp; &amp;nbsp; &amp;nbsp; &amp;nbsp; &amp;nbsp; &amp;nbsp; +iniciarCorreioVoz&lt;/div&gt;&lt;/div&gt;" style="text;html=1;align=center;verticalAlign=middle;resizable=0;points=[];autosize=1;strokeColor=none;fillColor=none;" vertex="1" parent="1">
          <mxGeometry x="240" y="380" width="200" height="60" as="geometry" />
        </mxCell>
        <mxCell id="pZCj7Mt7oj5ytXcFUYIk-8" value="&amp;nbsp; &amp;nbsp; &amp;nbsp; &amp;nbsp; &amp;nbsp; +exibirPagina(String url)&lt;div&gt;&lt;div&gt;&amp;nbsp; &amp;nbsp; &amp;nbsp;+adicionarNovaAba()&lt;/div&gt;&lt;div&gt;+atualizarPagina()&lt;/div&gt;&lt;/div&gt;" style="text;html=1;align=center;verticalAlign=middle;resizable=1;points=[];autosize=1;movable=1;rotatable=1;deletable=1;editable=1;locked=0;connectable=1;strokeColor=none;fillColor=none;" vertex="1" parent="1">
          <mxGeometry x="555" y="380" width="190" height="60" as="geometry" />
        </mxCell>
        <mxCell id="pZCj7Mt7oj5ytXcFUYIk-9" style="edgeStyle=orthogonalEdgeStyle;rounded=0;orthogonalLoop=1;jettySize=auto;html=1;entryX=0.463;entryY=0.021;entryDx=0;entryDy=0;entryPerimeter=0;" edge="1" parent="1" source="pZCj7Mt7oj5ytXcFUYIk-2" target="pZCj7Mt7oj5ytXcFUYIk-3">
          <mxGeometry relative="1" as="geometry" />
        </mxCell>
        <mxCell id="pZCj7Mt7oj5ytXcFUYIk-10" style="edgeStyle=orthogonalEdgeStyle;rounded=0;orthogonalLoop=1;jettySize=auto;html=1;entryX=0.533;entryY=-0.007;entryDx=0;entryDy=0;entryPerimeter=0;" edge="1" parent="1" source="pZCj7Mt7oj5ytXcFUYIk-2" target="pZCj7Mt7oj5ytXcFUYIk-5">
          <mxGeometry relative="1" as="geometry" />
        </mxCell>
      </root>
    </mxGraphModel>
  </diagram>
</mxfile>
